<svg xmlns="http://www.w3.org/2000/svg" width="512" height="512" viewBox="0 0 512 512"><rect width="512" height="512" fill="#15132a"/><circle cx="256" cy="256" r="206" fill="#E0B458" fill-opacity="0.05"/><circle cx="256" cy="256" r="150" fill="#E0B458" fill-opacity="0.06"/><circle cx="256" cy="256" r="96" fill="#E0B458" fill-opacity="0.09"/><path d="M368,126 Q376,148 398,156 Q376,164 368,186 Q360,164 338,156 Q360,148 368,126 Z" fill="#E0B458"/><path d="M150,340 Q156,356 172,362 Q156,368 150,384 Q144,368 128,362 Q144,356 150,340 Z" fill="#E0B458"/><path d="M256,84 Q296,216 428,256 Q296,296 256,428 Q216,296 84,256 Q216,216 256,84 Z" fill="#E0B458"/><path d="M256,158 Q282,230 354,256 Q282,282 256,354 Q230,282 158,256 Q230,230 256,158 Z" fill="#f0c878"/><path d="M256,214 Q271,241 298,256 Q271,271 256,298 Q241,271 214,256 Q241,241 256,214 Z" fill="#FBEFD2"/></svg>